<svg id="Layer_1" data-name="Layer 1" xmlns="http://www.w3.org/2000/svg" viewBox="0 0 714.24 233.39"><defs><style>.cls-1{fill:#e87200;}.cls-2{fill:#345d9d;}</style></defs><path class="cls-1" d="M70.52,58.77a9.65,9.65,0,1,0-9.65-9.65A9.65,9.65,0,0,0,70.52,58.77ZM49.41,140.31a6.42,6.42,0,1,0,9.08.15A6.43,6.43,0,0,0,49.41,140.31ZM40,119.79a7.49,7.49,0,1,0-9.08-5.44A7.51,7.51,0,0,0,40,119.79ZM171.43,55.91a7.88,7.88,0,1,0-2.88-10.77A7.89,7.89,0,0,0,171.43,55.91Zm-51.8,29a6.76,6.76,0,1,0-6.75-6.75A6.76,6.76,0,0,0,119.63,84.91ZM42.87,84a8.73,8.73,0,1,0-5.22-11.19A8.73,8.73,0,0,0,42.87,84ZM205.52,60.62l-173,67.87a1.43,1.43,0,0,0,.52,2.77,1.39,1.39,0,0,0,.53-.1l173-67.87a1.43,1.43,0,0,0-1-2.67ZM153.79,131h23.34l-11.67-20.21ZM380.6,73.88v2.2c11.14,1.3,11.48,1.4,11.48,9.8V140h12.63V71.58ZM113.7,110.39a5,5,0,1,0-5.76,4A5,5,0,0,0,113.7,110.39Zm-9.8,50.69a7.11,7.11,0,1,0,9.94-1.59A7.11,7.11,0,0,0,103.9,161.08Zm35.38-3.88a6.42,6.42,0,1,0,5.73,7.05A6.43,6.43,0,0,0,139.28,157.2Z"/><path class="cls-2" d="M144.47,44.2a6.42,6.42,0,1,0-6.42-6.42A6.43,6.43,0,0,0,144.47,44.2Zm54.43,80.26a9.65,9.65,0,1,0,9.65,9.65A9.65,9.65,0,0,0,198.9,124.46Zm58.8,40.32H245.82v.83c3.58.57,3.66.57,3.66,4.34v20.46h4.18V179H255c4.72,0,10.43,0,10.43-7.2C265.43,167.33,262.38,164.78,257.7,164.78Zm-2,12.45h-2v-8.38c0-1.56.12-2.29,2.17-2.29,3.4,0,5.41.84,5.41,5.11C261.24,176.24,258.65,177.23,255.65,177.23ZM207.79,87.46l-8.46-12.08-14.1,4.33L185,94.45l14,4.79ZM275,172.28c-5.56,0-8.23,2.93-8.23,9.29,0,5.33,2.1,9.26,8.23,9.26,5.64,0,8.23-3.05,8.23-9.26C283.21,176.09,280.5,172.28,275,172.28Zm0,17.25c-3.77,0-4-4.8-4-8,0-3.35.27-8,4-8s4,4.5,4,8C279,185.38,278.71,189.53,275,189.53ZM100.16,133.64a5,5,0,1,0,3.64,6A5,5,0,0,0,100.16,133.64ZM164,92.15a5,5,0,1,0,6.36,3A5,5,0,0,0,164,92.15ZM78.73,156.27a9.68,9.68,0,1,0,8.63,10.62A9.67,9.67,0,0,0,78.73,156.27Zm2.45-24.78a6.42,6.42,0,1,0-9.08.2A6.43,6.43,0,0,0,81.18,131.49Zm21-77.1A5,5,0,1,0,104,61.18,5,5,0,0,0,102.14,54.39ZM96.93,77.17H85.87V88.23H96.93Zm-27.17,17a7.49,7.49,0,1,0-5.09,9.29A7.49,7.49,0,0,0,69.76,94.21Zm82.29,48.18a7.11,7.11,0,1,0,9.93-1.58A7.12,7.12,0,0,0,152.05,142.39Zm-3.91-49.13A7.88,7.88,0,1,0,151,104,7.89,7.89,0,0,0,148.14,93.26Zm-31.27,37.3a5,5,0,1,0,6.89-1.38A5,5,0,0,0,116.87,130.56ZM134,119a5,5,0,1,0,7-.16A5,5,0,0,0,134,119ZM121.5,47.69a5.79,5.79,0,1,0-7.91-2.12A5.79,5.79,0,0,0,121.5,47.69Zm23.14,18.15a5,5,0,1,0,7-.61A5,5,0,0,0,144.64,65.84ZM512.37,172.28c-5.1,0-8,2.63-8,8.64,0,6.36,3.5,9.91,9.33,9.91a15.45,15.45,0,0,0,5.38-1v-1.68a10,10,0,0,1-3.59.65c-5.36,0-6.93-5.41-6.93-9.22h10.86C519.42,177,518.88,172.28,512.37,172.28ZM508.56,178c0-1.45.8-4.46,3.66-4.46,3.31,0,3.39,3.58,3.39,4.46Zm19.06-.72-.07-5-6.82,1.22v.76c2.39.07,3,.72,3,3.39v12.76h3.81v-9.1c0-2.67,1.1-5.68,5-5.68a6.94,6.94,0,0,1,1.94.46v-3.62a12.62,12.62,0,0,0-2.06-.19C529.33,172.28,528.15,175.55,527.62,177.31ZM295.75,166.49c2.25.12,2.86-.27,2.86,2.44v6.2a5.3,5.3,0,0,0-5.1-2.85c-5,0-7,4.8-7,9.63s1.86,8.92,6.81,8.92a7.23,7.23,0,0,0,5.26-2.56v2.14h3.81V164.78l-6.67.95Zm2.86,15.5c0,2-.34,6.78-4,6.78s-3.88-4.46-3.88-7.39c0-2.66.34-7,3.84-7s4,4,4,6.1Zm165.26-14.51a3.87,3.87,0,0,0,.57-1.26,1.58,1.58,0,0,0-1.75-1.44c-1.45,0-1.64,1-1.82,1.94l-.36,3.08h1.42ZM432.27,86c0-6.6,4.94-9.7,11-9.7,8.95,0,17.45,3.2,20.55,4.5v-7.4a111.75,111.75,0,0,0-18.37-1.8c-16.19,0-25.84,6.3-25.84,17.3,0,21.1,37.32,19.6,37.32,35.8,0,9.1-7.12,11.7-14.35,11.7-9.19,0-18.38-4.21-21.93-6v8.09c2.41.51,11.25,2.61,20.09,2.61,15.85,0,28.82-5.4,28.82-19.7C469.59,100,432.27,101.38,432.27,86Zm63,86.3c-3.43,0-4.88,2.78-5.67,4.27-.27-1.72-1.22-4.27-4.77-4.27s-5.17,3.2-5.83,4.53l-.07-4.53-6.82,1.22v.76c2.33.07,2.94.72,2.94,3.39v12.76h3.81v-9.3c0-2.7,1.63-6.24,4.26-6.24s2.55,2.66,2.55,5.67v9.87h3.81v-8.8c0-2.74,1.37-6.74,4.27-6.74,2.55,0,2.55,2.78,2.55,5.14v10.4h3.81v-11C500.08,176.7,500.08,172.28,495.24,172.28Zm48.62,0c-5.56,0-8.22,2.93-8.22,9.29,0,5.33,2.09,9.26,8.22,9.26,5.64,0,8.23-3.05,8.23-9.26C552.09,176.09,549.39,172.28,543.86,172.28Zm0,17.25c-3.77,0-4-4.8-4-8,0-3.35.26-8,4-8s4,4.5,4,8C547.9,185.38,547.6,189.53,543.86,189.53Zm23.7-117.95c-24.92,0-31.81,13.5-31.81,35s7.58,34.5,31.81,34.5c23.88,0,31.12-13.3,31.12-34.5C598.68,85.08,591.44,71.58,567.56,71.58Zm0,64.22c-17.45,0-19.18-17.06-19.18-29.23,0-13.24,1.38-29.72,19.18-29.72,17.45,0,18.49,16.88,18.49,29.72C586.05,119.13,585.36,135.8,567.56,135.8ZM674.8,72.68l-22.27,55.2h-.23l-22.74-55.2h-22.8v2.2c8.1,1.3,8.1,1.3,8.1,10.6V140h7.24V81.08h.23l24,58.9h8.15l24.11-59.5h.23V140H690.3V72.68ZM559.23,176.05c0-1.64,1.45-2.1,2.67-2.1a8.34,8.34,0,0,1,4.53,1.83v-2.85a16.81,16.81,0,0,0-4.27-.65c-4.49,0-6.36,2.36-6.36,5.1,0,5.26,8.34,5.49,8.34,9.22,0,1.33-.87,2.55-3.27,2.55a9.11,9.11,0,0,1-5-2v3a18,18,0,0,0,4.88.69c3.77,0,6.85-1.53,6.85-5.26C567.57,179.74,559.23,179.67,559.23,176.05ZM529.07,87.48h3.21l-.45-14.8H473l-.46,14.5h3.22c.69-7.3,3.33-9.8,12.4-9.8h7.92V140h12.63V77.38h7.81C525.39,77.38,529.07,79.78,529.07,87.48Zm-66.91,86.78c2.28.07,2.93.72,2.93,3.39v4.19c0,3.16-1.67,6.4-4.15,6.4-1.83,0-3.12-1-3.12-4.5V172.28l-6.74,1.22v.76c2.32.07,2.93.72,2.93,3.39v5.41c0,2.82,0,7.77,5.1,7.77,3.7,0,5.26-3.05,5.91-4.73l.07,4.31h3.81V172.28l-6.74,1.22ZM330.1,177.31l-.07-5-6.82,1.22v.76c2.4.07,3,.72,3,3.39v12.76H330v-9.1c0-2.67,1.1-5.68,5-5.68a6.94,6.94,0,0,1,1.94.46v-3.62a12.5,12.5,0,0,0-2.05-.19C331.82,172.28,330.64,175.55,330.1,177.31ZM344,71.58c-24.92,0-31.81,13.5-31.81,35s7.58,34.5,31.81,34.5c23.88,0,31.11-13.3,31.11-34.5C375.09,85.08,367.86,71.58,344,71.58Zm0,64.22c-17.46,0-19.18-17.06-19.18-29.23,0-13.24,1.38-29.72,19.18-29.72,17.45,0,18.48,16.88,18.48,29.72C362.46,119.13,361.77,135.8,344,135.8Zm-29.13,36.48c-5.1,0-8,2.63-8,8.64,0,6.36,3.51,9.91,9.34,9.91a15.37,15.37,0,0,0,5.37-1v-1.68a10,10,0,0,1-3.59.65c-5.36,0-6.92-5.41-6.92-9.22H321.9C321.9,177,321.37,172.28,314.85,172.28Zm-3.8,5.75c0-1.45.8-4.46,3.65-4.46,3.32,0,3.39,3.58,3.39,4.46Zm43.28-5.75c-5.48,0-6.74,2.66-7.16,5.18h4.54c0-1.68.15-3.89,2.66-3.89s2.4,2.67,2.4,5.07v1.94c-2.44.08-10,.5-10,5.87,0,2.24,2.13,4.38,5.11,4.38a6,6,0,0,0,4.91-2.67v2.25h3.81V178.83C360.58,175.06,359.74,172.28,354.33,172.28Zm2.44,11.88c0,2.59-1.34,4.61-3.54,4.61-1.41,0-2.29-1.22-2.29-3,0-3.62,4.46-3.81,5.83-3.85ZM411,176.05c0-1.64,1.45-2.1,2.67-2.1a8.34,8.34,0,0,1,4.53,1.83v-2.85a16.81,16.81,0,0,0-4.27-.65c-4.49,0-6.36,2.36-6.36,5.1,0,5.26,8.34,5.49,8.34,9.22,0,1.33-.87,2.55-3.27,2.55a9.11,9.11,0,0,1-5-2v3a18,18,0,0,0,4.88.69c3.77,0,6.85-1.53,6.85-5.26C419.36,179.74,411,179.67,411,176.05Zm32-3.77c-3.78,0-5.79,3.54-6.36,4.87l-.08-4.87-6.86,1.22v.76c2.4.07,3.05.72,3.05,3.39v12.76h3.81v-9.3c0-2.7,2.17-6.24,4.69-6.24s2.55,2.66,2.55,5.67v9.87h3.8V177.65C447.66,174.72,446.52,172.28,443.06,172.28Zm-46.43,2c2.29.07,2.93.72,2.93,3.39v4.19c0,3.16-1.67,6.4-4.15,6.4-1.83,0-3.12-1-3.12-4.5V172.28l-6.74,1.22v.76c2.32.07,2.93.72,2.93,3.39v5.41c0,2.82,0,7.77,5.1,7.77,3.7,0,5.26-3.05,5.91-4.73l.07,4.31h3.81V172.28l-6.74,1.22Zm-17.26-8-3.81,3.39v3h-3v1.52h3v11.69c0,4.35,2.13,4.92,5.79,4.92a14.8,14.8,0,0,0,2.55-.31V189a6.15,6.15,0,0,1-1.41.15c-2.93,0-3.12-1.18-3.12-3.85V174.22h5V172.7h-5ZM300.23,90.58c0-17.9-23.77-17.9-32.38-17.9h-.8v5.23a27.35,27.35,0,0,1,2.74-.12c9.65,0,17.81,2.91,17.81,13.38,0,10.85-11.49,12.6-19,12.6h-1.6v5.11h3.21L290.58,140h13.21l-21.13-32.9C291.73,105.78,300.23,102,300.23,90.58Zm-50.76-4.3V140H262.1V72.68H238.56v2.2C249.24,76.38,249.47,76.38,249.47,86.28Z"/></svg>